# xmcd CD database file
#
# Track frame offsets:
#	150
#	22627
#	38934
#	51729
#	67769
#	82644
#	97809
#	120812
#	134872
#	148707
#	160427
#	174301
#
# Disc length: 2516 seconds
#
# Revision: 0
# Processed by: cddbd v1.5.2PL0 Copyright (c) Steve Scherf et al.
# Submitted via: CDex 1.70beta2
#
DISCID=9209d20c
DTITLE=Manu Lanvin and the Devil Blues - Blues, Booze and Rock 'n' Roll
DYEAR=2016
DGENRE=Blues
TTITLE0=Six Blind White Horses
TTITLE1=Blues, Booze and Rock 'n' Roll
TTITLE2=Soul Revolution
TTITLE3=I Was Born
TTITLE4=R U There ?
TTITLE5=She's da Bomb
TTITLE6=Whippin' Boy
TTITLE7=J.J. Cale on the Radio
TTITLE8=When I'm down
TTITLE9=Papa's Got a Reefer
TTITLE10=Raise Your Hands for Peace
TTITLE11=Under the Waves
EXTD=YEAR: 2016
EXTT0=
EXTT1=
EXTT2=
EXTT3=
EXTT4=
EXTT5=
EXTT6=
EXTT7=
EXTT8=
EXTT9=
EXTT10=
EXTT11=
PLAYORDER=
